<?xml version="1.0" standalone="no"?><!DOCTYPE svg PUBLIC "-//W3C//DTD SVG 1.1//EN" "http://www.w3.org/Graphics/SVG/1.1/DTD/svg11.dtd"><svg t="1676277906650" class="icon" viewBox="0 0 1024 1024" version="1.1" xmlns="http://www.w3.org/2000/svg" p-id="4996" xmlns:xlink="http://www.w3.org/1999/xlink" width="200" height="200"><path d="M914.8 795.3c-5 0-10.1-1.3-14.8-4-14.2-8.2-19.1-26.4-10.9-40.6 34.1-59.3 52.1-126.5 52.1-194.4 0-69.5-18.8-138.1-54.5-198.4-8.4-14.1-3.7-32.4 10.4-40.7 14.1-8.3 32.3-3.7 40.7 10.4 41.1 69.4 62.8 148.5 62.8 228.6 0 78.3-20.8 155.8-60.1 224-5.4 9.8-15.4 15.1-25.7 15.1zM510.3 1023.2c-270.4 0-490.4-209.4-490.4-466.8 0-77.7 20.5-154.6 59.2-222.5 62-108.7 168.9-191 293.2-225.6 85.7-23.9 179.2-24.9 266.5-2.5 15.9 4.1 25.5 20.3 21.4 36.2-4.1 15.9-20.2 25.4-36.2 21.4-77.2-19.8-160-18.9-235.8 2.2C278.9 196 185 268.1 130.7 363.3c-33.6 58.9-51.4 125.6-51.4 193 0 224.6 193.3 407.4 430.9 407.4 97.2 0 188.9-29.8 265.2-86.3 13.2-9.8 31.8-7 41.6 6.2s7 31.8-6.2 41.6c-86.6 64.1-190.5 98-300.5 98z" fill="#1296db" p-id="4997"></path><path d="M104.9 378.3c-6.6 0-13.3-2.2-18.8-6.7-48.3-39.7-76-98.3-76-160.8 0-114.7 93.3-208 208-208 36.8 0 73.1 9.8 104.7 28.2 14.2 8.3 19 26.5 10.7 40.7-8.3 14.2-26.5 19-40.7 10.7-22.6-13.2-48.4-20.1-74.8-20.1-81.9 0-148.6 66.7-148.6 148.6 0 44.6 19.8 86.5 54.3 114.8 12.7 10.4 14.5 29.1 4.1 41.8-5.8 7.1-14.3 10.8-22.9 10.8z" fill="#1296db" p-id="4998"></path><path d="M346.8 379.2m-39.6 0a39.6 39.6 0 1 0 79.2 0 39.6 39.6 0 1 0-79.2 0Z" fill="#1296db" p-id="4999"></path><path d="M653.9 379.2m-39.6 0a39.6 39.6 0 1 0 79.2 0 39.6 39.6 0 1 0-79.2 0Z" fill="#1296db" p-id="5000"></path><path d="M510.3 884.5c-158.4 0-287.3-88.9-287.3-198.1s128.9-198.1 287.3-198.1 287.3 88.9 287.3 198.1-128.9 198.1-287.3 198.1z m0-356.7c-136.6 0-247.7 71.1-247.7 158.5s111.1 158.5 247.7 158.5S758 773.7 758 686.3 646.8 527.8 510.3 527.8z" fill="#1296db" p-id="5001"></path><path d="M510.3 716.1c-49.2 0-89.2-40-89.2-89.2s40-89.2 89.2-89.2 89.2 40 89.2 89.2-40.1 89.2-89.2 89.2z m0-138.7c-27.3 0-49.5 22.2-49.5 49.5s22.2 49.5 49.5 49.5 49.5-22.2 49.5-49.5-22.2-49.5-49.5-49.5z" fill="#1296db" p-id="5002" data-spm-anchor-id="a313x.7781069.0.i4" class="selected"></path><path d="M912.3 372.6c-1.5 0-3-0.1-4.5-0.3-8.8-1.4-16.6-6.6-21.1-14.3-56.1-95.1-151.9-166-262.7-194.7-8.6-2.2-15.7-8.1-19.5-16.2s-3.7-17.3 0-25.3c34.2-72.3 108-119.1 188-119.1 114.7 0 208 93.3 208 208 0 58.7-25 114.9-68.5 154.1-5.3 5.1-12.4 7.8-19.7 7.8zM677.2 117.3c96.5 33.4 180.7 95.7 238.6 176.6 16.4-24.3 25.4-53.2 25.4-83.1 0-81.9-66.7-148.6-148.6-148.6-45.2 0-87.6 20.9-115.4 55.1z" fill="#1296db" p-id="5003"></path></svg>